<svg width="264" height="275" viewBox="0 0 264 275" fill="none" xmlns="http://www.w3.org/2000/svg">
<rect width="264" height="275" fill="white"/>
<g clip-path="url(#clip0)">
<path d="M21 158.5L12.125 150V156H6.12497V161H12.125V167L21 158.5Z" fill="#32425C"/>
<path d="M3.10598 163.952V153.048C3.12398 152.672 3.27698 151.991 4.11598 151.991H9.14297V150H4.11598C1.93798 150 1.11198 151.81 1.08698 153.027V163.973C1.11198 165.189 1.93798 167 4.11598 167H9.14297V165.01H4.11598C3.27698 165.01 3.12398 164.327 3.10598 163.952Z" fill="#32425C"/>
</g>
<g clip-path="url(#clip1)">
<path d="M51 158.5L42.125 150V156H36.125V161H42.125V167L51 158.5Z" fill="white"/>
<path d="M33.106 163.952V153.048C33.124 152.672 33.277 151.991 34.116 151.991H39.143V150H34.116C31.938 150 31.112 151.81 31.087 153.027V163.973C31.112 165.189 31.938 167 34.116 167H39.143V165.01H34.116C33.277 165.01 33.124 164.327 33.106 163.952Z" fill="white"/>
</g>
<g clip-path="url(#clip2)">
<path d="M17.881 134.166C15.737 133.431 13.625 132.5 12.674 131.776C12.017 131.275 11.904 130.158 12.157 129.361C13.275 128.458 14.021 126.884 14.021 125.083C14.021 122.276 12.221 120 10 120C7.77901 120 5.97901 122.276 5.97901 125.083C5.97901 126.884 6.72501 128.457 7.84201 129.36C8.09501 130.158 7.98301 131.275 7.32501 131.776C6.37501 132.5 4.26201 133.43 2.11801 134.166C-0.0259855 134.902 1.45786e-05 138 1.45786e-05 138H20C20 138 20.025 134.901 17.881 134.166Z" fill="#32425C"/>
</g>
<g clip-path="url(#clip3)">
<path d="M47.881 134.166C45.737 133.431 43.625 132.5 42.674 131.776C42.017 131.275 41.904 130.158 42.157 129.361C43.275 128.458 44.021 126.884 44.021 125.083C44.021 122.276 42.221 120 40 120C37.779 120 35.979 122.276 35.979 125.083C35.979 126.884 36.725 128.457 37.842 129.36C38.095 130.158 37.983 131.275 37.325 131.776C36.375 132.5 34.262 133.43 32.118 134.166C29.974 134.902 30 138 30 138H50C50 138 50.025 134.901 47.881 134.166Z" fill="white"/>
</g>
<g clip-path="url(#clip4)">
<path d="M14.875 98.5L6 90V96H0V101H6V107L14.875 98.5Z" fill="#32425C"/>
<path d="M16.986 105.01H11.959V107H16.986C19.164 107 19.99 105.19 20.015 103.974V93.028C19.99 91.811 19.164 90 16.986 90H11.959V91.99H16.986C17.825 91.99 17.978 92.671 17.996 93.047V103.951C17.979 104.327 17.825 105.01 16.986 105.01Z" fill="#32425C"/>
</g>
<g clip-path="url(#clip5)">
<path d="M44.875 98.5L36 90V96H30V101H36V107L44.875 98.5Z" fill="white"/>
<path d="M46.986 105.01H41.959V107H46.986C49.164 107 49.99 105.19 50.015 103.974V93.028C49.99 91.811 49.164 90 46.986 90H41.959V91.99H46.986C47.825 91.99 47.978 92.671 47.996 93.047V103.951C47.979 104.327 47.825 105.01 46.986 105.01Z" fill="white"/>
</g>
<path d="M4.5 75C5.32843 75 6 74.3284 6 73.5C6 72.6716 5.32843 72 4.5 72C3.67157 72 3 72.6716 3 73.5C3 74.3284 3.67157 75 4.5 75Z" fill="white"/>
<path d="M12.5 75C13.3284 75 14 74.3284 14 73.5C14 72.6716 13.3284 72 12.5 72C11.6716 72 11 72.6716 11 73.5C11 74.3284 11.6716 75 12.5 75Z" fill="white"/>
<path d="M15 62H4.07L3.648 60H0V62H2.031L4.016 71H15V69H9.441L15 66.951V62Z" fill="white"/>
<path d="M34.5 75C35.3284 75 36 74.3284 36 73.5C36 72.6716 35.3284 72 34.5 72C33.6716 72 33 72.6716 33 73.5C33 74.3284 33.6716 75 34.5 75Z" fill="white" fill-opacity="0.3"/>
<path d="M42.5 75C43.3284 75 44 74.3284 44 73.5C44 72.6716 43.3284 72 42.5 72C41.6716 72 41 72.6716 41 73.5C41 74.3284 41.6716 75 42.5 75Z" fill="white" fill-opacity="0.3"/>
<path d="M45 62H34.07L33.648 60H30V62H32.031L34.016 71H45V69H39.441L45 66.951V62Z" fill="white" fill-opacity="0.3"/>
<path d="M64.5 75C65.3284 75 66 74.3284 66 73.5C66 72.6716 65.3284 72 64.5 72C63.6716 72 63 72.6716 63 73.5C63 74.3284 63.6716 75 64.5 75Z" fill="white" fill-opacity="0.5"/>
<path d="M72.5 75C73.3284 75 74 74.3284 74 73.5C74 72.6716 73.3284 72 72.5 72C71.6716 72 71 72.6716 71 73.5C71 74.3284 71.6716 75 72.5 75Z" fill="white" fill-opacity="0.5"/>
<path d="M75 62H64.07L63.648 60H60V62H62.031L64.016 71H75V69H69.441L75 66.951V62Z" fill="white" fill-opacity="0.5"/>
<path d="M44 45C44 45.55 43.632 45.741 43.182 45.426L37.819 41.661C37.369 41.346 36.632 41.346 36.182 41.661L30.818 45.426C30.368 45.741 30 45.55 30 45V31C30 30.45 30.45 30 31 30H43C43.55 30 44 30.45 44 31V45Z" fill="white" fill-opacity="0.3"/>
<path d="M74 45C74 45.55 73.632 45.741 73.182 45.426L67.819 41.661C67.369 41.346 66.632 41.346 66.182 41.661L60.818 45.426C60.368 45.741 60 45.55 60 45V31C60 30.45 60.45 30 61 30H73C73.55 30 74 30.45 74 31V45Z" fill="white" fill-opacity="0.5"/>
<path d="M14 45C14 45.55 13.632 45.741 13.182 45.426L7.819 41.661C7.369 41.346 6.632 41.346 6.182 41.661L0.818 45.426C0.368 45.741 0 45.55 0 45V31C0 30.45 0.45 30 1 30H13C13.55 30 14 30.45 14 31V45Z" fill="#FDFDFD"/>
<rect width="17" height="17" fill="white"/>
<path d="M17 15.586L13.458 12.044C14.421 10.782 15 9.21 15 7.5C15 3.358 11.643 0 7.5 0C3.358 0 0 3.358 0 7.5C0 11.643 3.358 15 7.5 15C9.21 15 10.782 14.421 12.044 13.458L15.586 17L17 15.586ZM2 7.5C2 4.467 4.467 2 7.5 2C10.532 2 13 4.467 13 7.5C13 10.532 10.532 13 7.5 13C4.467 13 2 10.532 2 7.5Z" fill="white"/>
<path d="M77 15.586L73.458 12.044C74.421 10.782 75 9.21 75 7.5C75 3.358 71.643 0 67.5 0C63.358 0 60 3.358 60 7.5C60 11.643 63.358 15 67.5 15C69.21 15 70.782 14.421 72.044 13.458L75.586 17L77 15.586ZM62 7.5C62 4.467 64.467 2 67.5 2C70.532 2 73 4.467 73 7.5C73 10.532 70.532 13 67.5 13C64.467 13 62 10.532 62 7.5Z" fill="#EE3643"/>
<path d="M47 15.586L43.458 12.044C44.421 10.782 45 9.21 45 7.5C45 3.358 41.643 0 37.5 0C33.358 0 30 3.358 30 7.5C30 11.643 33.358 15 37.5 15C39.21 15 40.782 14.421 42.044 13.458L45.586 17L47 15.586ZM32 7.5C32 4.467 34.467 2 37.5 2C40.532 2 43 4.467 43 7.5C43 10.532 40.532 13 37.5 13C34.467 13 32 10.532 32 7.5Z" fill="white" fill-opacity="0.3"/>
<path d="M15.572 198.985C15.26 198.985 14.943 198.985 14.631 198.985C10.502 198.497 7.47403 196.577 5.27203 194.121C3.06203 191.66 1.31803 188.492 0.978027 184.228C0.978027 183.846 0.978027 183.466 0.978027 183.084C1.05603 182.31 1.43703 181.78 1.87603 181.327C2.42503 180.766 3.25003 180.044 4.00203 180.019C4.55603 180.001 5.50203 180.399 5.88103 180.918C6.21003 181.364 6.38503 182.257 6.53703 182.921C6.69103 183.592 7.04203 184.564 6.94503 185.21C6.79703 186.217 5.45803 186.644 5.06603 187.376C6.37303 190.511 8.50903 192.815 11.359 194.407C12.074 194.015 12.705 192.835 13.691 192.812C14.05 192.803 14.509 192.99 14.875 193.098C15.277 193.219 15.625 193.373 15.979 193.506C16.575 193.73 17.627 194.027 17.983 194.527C18.348 195.04 18.553 195.883 18.473 196.406C18.309 197.447 16.594 198.603 15.572 198.985Z" fill="#B7BFC8"/>
<defs>
<clipPath id="clip0">
<rect y="150" width="21" height="17" fill="white"/>
</clipPath>
<clipPath id="clip1">
<rect x="30" y="150" width="21" height="17" fill="white"/>
</clipPath>
<clipPath id="clip2">
<rect y="120" width="20" height="18" fill="white"/>
</clipPath>
<clipPath id="clip3">
<rect x="30" y="120" width="20" height="18" fill="white"/>
</clipPath>
<clipPath id="clip4">
<rect y="90" width="20" height="17" fill="white"/>
</clipPath>
<clipPath id="clip5">
<rect x="30" y="90" width="20" height="17" fill="white"/>
</clipPath>
</defs>
</svg>
