<svg width="215" height="237" viewBox="0 0 215 237" fill="none" xmlns="http://www.w3.org/2000/svg">
<rect width="215" height="237" fill="#D2D1D1"/>
<path d="M30.5 145C31.3284 145 32 144.328 32 143.5C32 142.672 31.3284 142 30.5 142C29.6716 142 29 142.672 29 143.5C29 144.328 29.6716 145 30.5 145Z" fill="white" fill-opacity="0.3"/>
<path d="M38.5 145C39.3284 145 40 144.328 40 143.5C40 142.672 39.3284 142 38.5 142C37.6716 142 37 142.672 37 143.5C37 144.328 37.6716 145 38.5 145Z" fill="white" fill-opacity="0.3"/>
<path d="M41 132H30.07L29.648 130H26V132H28.031L30.016 141H41V139H35.441L41 136.951V132Z" fill="white" fill-opacity="0.3"/>
<path d="M49.5 145C50.3284 145 51 144.328 51 143.5C51 142.672 50.3284 142 49.5 142C48.6716 142 48 142.672 48 143.5C48 144.328 48.6716 145 49.5 145Z" fill="white" fill-opacity="0.3"/>
<path d="M57.5 145C58.3284 145 59 144.328 59 143.5C59 142.672 58.3284 142 57.5 142C56.6716 142 56 142.672 56 143.5C56 144.328 56.6716 145 57.5 145Z" fill="white" fill-opacity="0.3"/>
<path d="M60 132H49.07L48.648 130H45V132H47.031L49.016 141H60V139H54.441L60 136.951V132Z" fill="white" fill-opacity="0.5"/>
<path d="M10.5 145C11.3284 145 12 144.328 12 143.5C12 142.672 11.3284 142 10.5 142C9.67157 142 9 142.672 9 143.5C9 144.328 9.67157 145 10.5 145Z" fill="white"/>
<path d="M18.5 145C19.3284 145 20 144.328 20 143.5C20 142.672 19.3284 142 18.5 142C17.6716 142 17 142.672 17 143.5C17 144.328 17.6716 145 18.5 145Z" fill="white"/>
<path d="M21 132H10.07L9.648 130H6V132H8.031L10.016 141H21V139H15.441L21 136.951V132Z" fill="white"/>
<path d="M17 34V30H13C10.791 30 9 31.791 9 34V38H5V42H9V52H13V42H17V38H13V34H17Z" fill="white"/>
<path d="M20 125C20 125.55 19.632 125.741 19.182 125.426L13.819 121.661C13.369 121.346 12.632 121.346 12.182 121.661L6.818 125.426C6.368 125.741 6 125.55 6 125V111C6 110.45 6.45 110 7 110H19C19.55 110 20 110.45 20 111V125Z" fill="white"/>
<path d="M60 125C60 125.55 59.632 125.741 59.182 125.426L53.819 121.661C53.369 121.346 52.632 121.346 52.182 121.661L46.818 125.426C46.368 125.741 46 125.55 46 125V111C46 110.45 46.45 110 47 110H59C59.55 110 60 110.45 60 111V125Z" fill="white" fill-opacity="0.5"/>
<path d="M40 125C40 125.55 39.632 125.741 39.182 125.426L33.819 121.661C33.369 121.346 32.632 121.346 32.182 121.661L26.818 125.426C26.368 125.741 26 125.55 26 125V111C26 110.45 26.45 110 27 110H39C39.55 110 40 110.45 40 111V125Z" fill="white" fill-opacity="0.3"/>
<g clip-path="url(#clip0)">
<path d="M8 219V223H12V219H14V223H18V219L13 214.516L8 219Z" fill="#C1C6CE"/>
<path d="M19.831 217.365L18 215.751V211H16V213.987L13.332 211.635C13.312 211.618 13.289 211.612 13.268 211.598C13.242 211.58 13.216 211.563 13.188 211.551C13.156 211.539 13.125 211.533 13.093 211.527C13.062 211.521 13.032 211.515 13 211.515C12.969 211.515 12.939 211.521 12.908 211.527C12.875 211.533 12.845 211.539 12.813 211.552C12.785 211.563 12.76 211.581 12.733 211.598C12.712 211.612 12.688 211.618 12.669 211.635L6.17101 217.365C5.96401 217.548 5.94401 217.864 6.12601 218.071C6.22501 218.183 6.36301 218.24 6.50101 218.24C6.61901 218.24 6.73701 218.199 6.83201 218.115L13 212.677L19.169 218.115C19.265 218.199 19.383 218.24 19.5 218.24C19.639 218.24 19.776 218.182 19.875 218.071C20.058 217.864 20.038 217.548 19.831 217.365Z" fill="#C1C6CE"/>
</g>
<g clip-path="url(#clip1)">
<path d="M207.83 40.965L209.919 43.064L192.13 60.947L209.977 78.886L207.887 80.985L187.952 60.947L207.83 40.965Z" fill="white"/>
</g>
<g clip-path="url(#clip2)">
<path d="M20.875 199.5L12 191V197H6V202H12V208L20.875 199.5Z" fill="#32425C"/>
<path d="M22.986 206.01H17.959V208H22.986C25.164 208 25.99 206.19 26.015 204.974V194.028C25.99 192.811 25.164 191 22.986 191H17.959V192.99H22.986C23.825 192.99 23.978 193.671 23.996 194.047V204.951C23.979 205.327 23.825 206.01 22.986 206.01Z" fill="#32425C"/>
</g>
<path d="M43.986 206.01H38.959V208H43.986C46.164 208 46.99 206.19 47.015 204.974V194.028C46.99 192.811 46.164 191 43.986 191H38.959V192.99H43.986C44.825 192.99 44.978 193.671 44.996 194.047V204.951C44.979 205.327 44.825 206.01 43.986 206.01Z" fill="#C5C5C5"/>
<path d="M41.875 199.5L33 191V197H27V202H33V208L41.875 199.5Z" fill="#C5C5C5"/>
<g clip-path="url(#clip3)">
<path d="M26 178.5L17.125 170V176H11.125V181H17.125V187L26 178.5Z" fill="#32425C"/>
<path d="M8.10601 183.952V173.048C8.12401 172.672 8.27701 171.991 9.11601 171.991H14.143V170H9.11601C6.93801 170 6.11201 171.81 6.08701 173.027V183.973C6.11201 185.189 6.93801 187 9.11601 187H14.143V185.01H9.11601C8.27701 185.01 8.12401 184.327 8.10601 183.952Z" fill="#32425C"/>
</g>
<path d="M47 178.5L38.125 170V176H32.125V181H38.125V187L47 178.5Z" fill="#C5C5C5"/>
<path d="M29.106 183.952V173.048C29.124 172.672 29.277 171.991 30.116 171.991H35.143V170H30.116C27.938 170 27.112 171.81 27.087 173.027V183.973C27.112 185.189 27.938 187 30.116 187H35.143V185.01H30.116C29.277 185.01 29.124 184.327 29.106 183.952Z" fill="#C5C5C5"/>
<path d="M110.572 19.985C110.26 19.985 109.943 19.985 109.631 19.985C105.502 19.497 102.474 17.577 100.272 15.121C98.062 12.66 96.318 9.49199 95.978 5.22799C95.978 4.84599 95.978 4.46599 95.978 4.08399C96.056 3.30999 96.437 2.77999 96.876 2.32699C97.425 1.76599 98.25 1.04399 99.002 1.01899C99.556 1.00099 100.502 1.39899 100.881 1.91799C101.21 2.36399 101.385 3.25699 101.537 3.92099C101.691 4.59199 102.042 5.56399 101.945 6.20999C101.797 7.21699 100.458 7.64399 100.066 8.37599C101.373 11.511 103.509 13.815 106.359 15.407C107.074 15.015 107.705 13.835 108.691 13.812C109.05 13.803 109.509 13.99 109.875 14.098C110.277 14.219 110.625 14.373 110.979 14.506C111.575 14.73 112.627 15.027 112.983 15.527C113.348 16.04 113.553 16.883 113.473 17.406C113.309 18.447 111.594 19.603 110.572 19.985Z" fill="#B7BFC8"/>
<g clip-path="url(#clip4)">
<path d="M190.098 0.964996L188.009 3.064L205.798 20.947L187.952 38.886L190.041 40.985L209.976 20.947L190.098 0.964996Z" fill="white"/>
</g>
<g clip-path="url(#clip5)">
<path d="M122.237 6.642L116.729 1.133C116.634 1.03805 116.505 0.984711 116.371 0.984711C116.237 0.984711 116.108 1.03805 116.013 1.133C115.918 1.22795 115.865 1.35672 115.865 1.491C115.865 1.62528 115.918 1.75405 116.013 1.849L121.163 7L116.012 12.15C115.923 12.2461 115.874 12.3731 115.877 12.5042C115.879 12.6354 115.932 12.7605 116.025 12.8533C116.117 12.9461 116.242 12.9994 116.374 13.0019C116.505 13.0045 116.632 12.9561 116.728 12.867L122.237 7.358C122.284 7.31114 122.322 7.25538 122.347 7.19393C122.373 7.13248 122.386 7.06657 122.386 7C122.386 6.93343 122.373 6.86751 122.347 6.80607C122.322 6.74462 122.284 6.68886 122.237 6.642V6.642Z" fill="#C1C6CE"/>
</g>
<path d="M23 165.586L19.458 162.044C20.421 160.782 21 159.21 21 157.5C21 153.358 17.643 150 13.5 150C9.358 150 6 153.358 6 157.5C6 161.643 9.358 165 13.5 165C15.21 165 16.782 164.421 18.044 163.458L21.586 167L23 165.586ZM8 157.5C8 154.467 10.467 152 13.5 152C16.532 152 19 154.467 19 157.5C19 160.532 16.532 163 13.5 163C10.467 163 8 160.532 8 157.5Z" fill="white"/>
<path d="M62 165.586L58.458 162.044C59.421 160.782 60 159.21 60 157.5C60 153.358 56.643 150 52.5 150C48.358 150 45 153.358 45 157.5C45 161.643 48.358 165 52.5 165C54.21 165 55.782 164.421 57.044 163.458L60.586 167L62 165.586ZM47 157.5C47 154.467 49.467 152 52.5 152C55.532 152 58 154.467 58 157.5C58 160.532 55.532 163 52.5 163C49.467 163 47 160.532 47 157.5Z" fill="#EE3643"/>
<path d="M43 165.586L39.458 162.044C40.421 160.782 41 159.21 41 157.5C41 153.358 37.643 150 33.5 150C29.358 150 26 153.358 26 157.5C26 161.643 29.358 165 33.5 165C35.21 165 36.782 164.421 38.044 163.458L41.586 167L43 165.586ZM28 157.5C28 154.467 30.467 152 33.5 152C36.532 152 39 154.467 39 157.5C39 160.532 36.532 163 33.5 163C30.467 163 28 160.532 28 157.5Z" fill="white" fill-opacity="0.3"/>
<path d="M43 165.586L39.458 162.044C40.421 160.782 41 159.21 41 157.5C41 153.358 37.643 150 33.5 150C29.358 150 26 153.358 26 157.5C26 161.643 29.358 165 33.5 165C35.21 165 36.782 164.421 38.044 163.458L41.586 167L43 165.586ZM28 157.5C28 154.467 30.467 152 33.5 152C36.532 152 39 154.467 39 157.5C39 160.532 36.532 163 33.5 163C30.467 163 28 160.532 28 157.5Z" fill="white" fill-opacity="0.3"/>
<g clip-path="url(#clip6)">
<path d="M23.881 94.166C21.737 93.431 19.625 92.5 18.674 91.776C18.017 91.275 17.904 90.158 18.157 89.361C19.275 88.458 20.021 86.884 20.021 85.083C20.021 82.276 18.221 80 16 80C13.779 80 11.979 82.276 11.979 85.083C11.979 86.884 12.725 88.457 13.842 89.36C14.095 90.158 13.983 91.275 13.325 91.776C12.375 92.5 10.262 93.43 8.11801 94.166C5.97401 94.902 6.00001 98 6.00001 98H26C26 98 26.025 94.901 23.881 94.166Z" fill="#32425C"/>
</g>
<path d="M43.881 94.166C41.737 93.431 39.625 92.5 38.674 91.776C38.017 91.275 37.904 90.158 38.157 89.361C39.275 88.458 40.021 86.884 40.021 85.083C40.021 82.276 38.221 80 36 80C33.779 80 31.979 82.276 31.979 85.083C31.979 86.884 32.725 88.457 33.842 89.36C34.095 90.158 33.983 91.275 33.325 91.776C32.375 92.5 30.262 93.43 28.118 94.166C25.974 94.902 26 98 26 98H46C46 98 46.025 94.901 43.881 94.166Z" fill="#C5C5C5"/>
<path d="M24 1H9C7.35 1 6 2.35 6 4V19C6 20.65 7.35 22 9 22H24C25.65 22 27 20.65 27 19V4C27 2.35 25.65 1 24 1ZM16.5 8C18.43 8 20 9.57 20 11.5C20 13.43 18.43 15 16.5 15C14.57 15 13 13.43 13 11.5C13 9.57 14.57 8 16.5 8ZM24 19H9V10H10.181C10.067 10.482 10 10.983 10 11.5C10 15.09 12.91 18 16.5 18C20.09 18 23 15.09 23 11.5C23 10.983 22.934 10.482 22.819 10H24V19ZM24 8H20V4H24V8Z" fill="white"/>
<g clip-path="url(#clip7)">
<path d="M21.138 71.51C22.094 71.201 23.318 73.55 24.621 74.449C25.599 75.13 26.348 74.983 26.348 74.983L29.821 74.933C29.821 74.933 31.636 74.821 30.778 73.379C30.707 73.259 30.275 72.31 28.193 70.357C26.016 68.314 26.311 68.645 28.932 65.113C30.529 62.96 31.168 61.645 30.968 61.085C30.776 60.546 29.603 60.686 29.603 60.686L25.69 60.713C25.309 60.714 24.986 60.832 24.839 61.228C24.836 61.232 24.218 62.894 23.394 64.307C21.653 67.296 20.958 67.455 20.67 67.268C20.009 66.835 20.176 65.531 20.176 64.604C20.176 61.707 20.608 60.499 19.33 60.187C18.903 60.083 18.591 60.015 17.502 60.005C16.11 59.984 14.928 60.005 14.258 60.334C13.813 60.557 13.472 61.046 13.679 61.074C13.939 61.109 14.522 61.234 14.834 61.66C15.235 62.212 15.223 63.449 15.223 63.449C15.223 63.449 15.452 66.86 14.683 67.283C14.155 67.573 13.433 66.981 11.88 64.267C11.087 62.879 10.488 61.345 10.488 61.345C10.488 61.345 10.372 61.06 10.162 60.904C9.912 60.719 9.562 60.66 9.562 60.66L5.848 60.684C5.848 60.684 5.29 60.7 5.085 60.946C4.903 61.164 5.07 61.614 5.07 61.614C5.07 61.614 7.979 68.495 11.273 71.961C14.293 75.143 17.725 74.932 17.725 74.932H19.28C19.28 74.932 19.749 74.878 19.989 74.62C20.213 74.38 20.203 73.929 20.203 73.929C20.203 73.929 20.172 71.82 21.138 71.51Z" fill="white"/>
</g>
<defs>
<clipPath id="clip0">
<rect x="5" y="211" width="15" height="12" fill="white"/>
</clipPath>
<clipPath id="clip1">
<rect x="188" y="41" width="22" height="40" fill="white"/>
</clipPath>
<clipPath id="clip2">
<rect x="6" y="191" width="20" height="17" fill="white"/>
</clipPath>
<clipPath id="clip3">
<rect x="5" y="170" width="21" height="17" fill="white"/>
</clipPath>
<clipPath id="clip4">
<rect x="188" y="1" width="22" height="40" fill="white"/>
</clipPath>
<clipPath id="clip5">
<rect x="115" y="1" width="8" height="12" fill="white"/>
</clipPath>
<clipPath id="clip6">
<rect x="6" y="80" width="20" height="18" fill="white"/>
</clipPath>
<clipPath id="clip7">
<rect x="5" y="60" width="26" height="15" fill="white"/>
</clipPath>
</defs>
</svg>
